General
Unique ID                                : 231498674509124857102934812398571029348 (0xADE2A1B0C5E78F290134DE583B92F264)
Complete name                            : 300.2006.1080p.BluRay.REMUX.VC-1.LPCM.TrueHD.5.1-FGT.mkv
Format                                   : Matroska
Format version                           : Version 4
File size                                : 26.8 GiB
Duration                                 : 1 h 56 min 38 s
Overall bit rate                         : 32.8 Mb/s
Movie name                               : 300
Encoded date                             : UTC 2007-07-31 10:24:00
Writing application                      : mkvmerge v8.2.0 ('World of Wonders') 64bit
Writing library                          : libebml v1.3.1 + libmatroska v1.4.2

Video
ID                                       : 1
Format                                   : VC-1
Format profile                           : Advanced@L3
Codec ID                                 : V_MS/VFW/FOURCC / WVC1
Codec ID/Hint                            : Microsoft
Duration                                 : 1 h 56 min 38 s
Bit rate                                 : 16.8 Mb/s
Width                                    : 1 920 pixels
Height                                   : 1 080 pixels
Display aspect ratio                     : 16:9
Frame rate mode                          : Constant
Frame rate                               : 23.976 (24000/1001) fps
Color space                              : YUV
Chroma subsampling                       : 4:2:0
Bit depth                                : 8 bits
Scan type                                : Progressive
Compression mode                         : Lossy
Bits/(Pixel*Frame)                       : 0.338
Stream size                              : 13.7 GiB (51%)
Language                                 : English
Default                                  : Yes
Forced                                   : No

Audio #1
ID                                       : 2
Format                                   : LPCM
Format settings                          : Little / Signed
Muxing mode                              : Raw
Codec ID                                 : A_MS/ACM / 0x0001
Duration                                 : 1 h 56 min 38 s
Bit rate mode                            : Constant
Bit rate                                 : 4 608 kbps
Channel(s)                               : 6 channels
Channel layout                           : L R C LFE Ls Rs
Sampling rate                            : 48.0 kHz
Bit depth                                : 16 bits
Stream size                              : 3.76 GiB (14%)
Title                                    : Uncompressed LPCM 5.1 @ 4608 kbps
Language                                 : English
Default                                  : Yes
Forced                                   : No

Audio #2
ID                                       : 3
Format                                   : TrueHD
Format profile                           : Stereo / Surround-coded
Codec ID                                 : A_TRUEHD
Duration                                 : 1 h 56 min 38 s
Bit rate mode                            : Variable
Bit rate                                 : 1 542 kbps
Maximum bit rate                         : 3 104 kbps
Channel(s)                               : 6 channels
Channel layout                           : L R C LFE Ls Rs
Sampling rate                            : 48.0 kHz
Frame rate                               : 1 200.000 fps (40 SPF)
Bit depth                                : 16 bits
Compression mode                         : Lossless
Stream size                              : 1.26 GiB (5%)
Title                                    : Dolby TrueHD 5.1 @ 1542 kbps (Core-less)
Language                                 : English
Default                                  : No
Forced                                   : No

Audio #3
ID                                       : 4
Format                                   : AC-3
Format/Info                              : Audio Coding 3
Commercial name                          : Dolby Digital
Codec ID                                 : A_AC3
Duration                                 : 1 h 56 min 38 s
Bit rate mode                            : Constant
Bit rate                                 : 640 kbps
Channel(s)                               : 6 channels
Channel layout                           : L R C LFE Ls Rs
Sampling rate                            : 48.0 kHz
Frame rate                               : 31.250 fps (1536 SPF)
Bit depth                                : 16 bits
Compression mode                         : Lossy
Stream size                              : 534 MiB (2%)
Title                                    : Dolby Digital 5.1 @ 640 kbps
Language                                 : English
Default                                  : No
Forced                                   : No

Audio #4
ID                                       : 5
Format                                   : AC-3
Format/Info                              : Audio Coding 3
Commercial name                          : Dolby Digital
Codec ID                                 : A_AC3
Duration                                 : 1 h 56 min 38 s
Bit rate mode                            : Constant
Bit rate                                 : 640 kbps
Channel(s)                               : 6 channels
Channel layout                           : L R C LFE Ls Rs
Sampling rate                            : 48.0 kHz
Frame rate                               : 31.250 fps (1536 SPF)
Bit depth                                : 16 bits
Compression mode                         : Lossy
Stream size                              : 534 MiB (2%)
Title                                    : Dolby Digital 5.1 @ 640 kbps (Dub)
Language                                 : French
Default                                  : No
Forced                                   : No

Audio #5
ID                                       : 6
Format                                   : AC-3
Format/Info                              : Audio Coding 3
Commercial name                          : Dolby Digital
Codec ID                                 : A_AC3
Duration                                 : 1 h 56 min 38 s
Bit rate mode                            : Constant
Bit rate                                 : 640 kbps
Channel(s)                               : 6 channels
Channel layout                           : L R C LFE Ls Rs
Sampling rate                            : 48.0 kHz
Frame rate                               : 31.250 fps (1536 SPF)
Bit depth                                : 16 bits
Compression mode                         : Lossy
Stream size                              : 534 MiB (2%)
Title                                    : Dolby Digital 5.1 @ 640 kbps (Dub)
Language                                 : Spanish
Default                                  : No
Forced                                   : No

Audio #6
ID                                       : 7
Format                                   : AC-3
Format/Info                              : Audio Coding 3
Commercial name                          : Dolby Digital
Codec ID                                 : A_AC3
Duration                                 : 1 h 56 min 38 s
Bit rate mode                            : Constant
Bit rate                                 : 192 kbps
Channel(s)                               : 2 channels
Channel layout                           : L R
Sampling rate                            : 48.0 kHz
Frame rate                               : 31.250 fps (1536 SPF)
Bit depth                                : 16 bits
Compression mode                         : Lossy
Stream size                              : 160 MiB (1%)
Title                                    : Commentary by Director Zack Snyder, Co-Writer Kurt Johnstad and Director of Photography Larry Fong
Language                                 : English
Default                                  : No
Forced                                   : No

Subtitle #1
ID                                       : 8
Format                                   : PGS
Muxing mode                              : zlib
Codec ID                                 : S_HDMV/PGS
Codec ID/Info                            : Picture based subtitle format used on BDs/HD-DVDs
Duration                                 : 1 h 56 min 12 s
Bit rate                                 : 32.4 kb/s
Count of elements                        : 3110
Stream size                              : 26.9 MiB (0%)
Title                                    : English (PGS)
Language                                 : English
Default                                  : Yes
Forced                                   : No

Subtitle #2
ID                                       : 9
Format                                   : PGS
Muxing mode                              : zlib
Codec ID                                 : S_HDMV/PGS
Codec ID/Info                            : Picture based subtitle format used on BDs/HD-DVDs
Duration                                 : 1 h 56 min 04 s
Bit rate                                 : 28.1 kb/s
Count of elements                        : 2940
Stream size                              : 23.3 MiB (0%)
Title                                    : French (PGS)
Language                                 : French
Default                                  : No
Forced                                   : No

Subtitle #3
ID                                       : 10
Format                                   : PGS
Muxing mode                              : zlib
Codec ID                                 : S_HDMV/PGS
Codec ID/Info                            : Picture based subtitle format used on BDs/HD-DVDs
Duration                                 : 1 h 56 min 08 s
Bit rate                                 : 29.3 kb/s
Count of elements                        : 3012
Stream size                              : 24.3 MiB (0%)
Title                                    : Spanish (PGS)
Language                                 : Spanish
Default                                  : No
Forced                                   : No

Subtitle #4
ID                                       : 11
Format                                   : PGS
Muxing mode                              : zlib
Codec ID                                 : S_HDMV/PGS
Codec ID/Info                            : Picture based subtitle format used on BDs/HD-DVDs
Duration                                 : 1 h 56 min 38 s
Bit rate                                 : 45.2 kb/s
Count of elements                        : 4210
Stream size                              : 37.5 MiB (0%)
Title                                    : Commentary (PGS)
Language                                 : English
Default                                  : No
Forced                                   : No

Menu
00:00:00.000                             : en:Chapter 01 (The Training of a Spartan)
00:06:45.321                             : en:Chapter 02 (The Persian Envoy)
00:13:12.791                             : en:Chapter 03 (The Hot Gates)
00:21:40.215                             : en:Chapter 04 (The Spartan Army Marches)
00:29:50.080                             : en:Chapter 05 (Encountering the Arcadians)
00:36:12.420                             : en:Chapter 06 (The First Wave)
00:44:02.139                             : en:Chapter 07 (The Immortals)
00:52:48.331                             : en:Chapter 08 (Meeting Xerxes)
01:00:15.527                             : en:Chapter 09 (The Battle Continues)
01:08:42.910                             : en:Chapter 10 (Ephialtes' Betrayal)
01:17:33.282                             : en:Chapter 11 (Leonidas' Last Stand)
01:28:10.119                             : en:Chapter 12 (The Battle of Plateae / End Credits)
